<svg width="771" height="344" viewBox="0 0 771 344" fill="none" xmlns="http://www.w3.org/2000/svg">
<path d="M75.0663 128.243L101.564 -0.00757599M0.933006 17.0674L233.312 107.008M770.873 315.067L483.816 203.964M581.504 -0.21302L644.744 289.873M656.498 343.787L644.744 289.873M770.717 143.979L677.778 163.41M0.572049 305L40.6824 296.614M139.573 343.851L150.629 270.702M191.568 -0.149445L172.613 125.26M0.0256365 200.163L66.7028 156.646M321.047 -1L104.564 132M494.4 0.498848L296.416 344.499M680.509 0.14225L658.677 167.404M658.677 167.404C630.797 173.233 610.407 177.496 578.451 184.178M658.677 167.404L770.011 231.865M658.677 167.404L562.964 111.987M371.042 0.865417L556.47 108.226M66.7028 156.646C51.476 134.403 42.5688 107.492 42.5688 78.5C42.5688 2.00856 104.573 -60 181.058 -60C257.544 -60 319.547 2.00856 319.547 78.5C319.547 154.991 257.544 217 181.058 217C173.703 217 166.483 216.427 159.438 215.322M66.7028 156.646C87.7873 187.445 120.989 209.294 159.438 215.322M104.564 132C92.9427 129.457 80.8713 128.116 68.4869 128.116C-24.2897 128.116 -99.5001 203.333 -99.5001 296.116C-99.5001 388.9 -24.2897 464.116 68.4869 464.116C161.263 464.116 236.474 388.9 236.474 296.116C236.474 253.563 220.654 214.705 194.576 185.104M104.564 132C140.074 139.772 171.382 158.777 194.576 185.104M40.6824 296.614C24.4627 314.389 14.571 338.039 14.571 364C14.571 419.228 59.3391 464 114.563 464C169.787 464 214.555 419.228 214.555 364C214.555 323.344 190.295 288.354 155.462 272.72M40.6824 296.614C58.9685 276.574 85.2976 264 114.563 264C127.279 264 139.441 266.374 150.629 270.702M54.8138 293.659C54.6505 296.919 54.5679 300.2 54.5679 303.5C54.5679 410.367 141.194 497 248.053 497C354.912 497 441.538 410.367 441.538 303.5C441.538 196.633 354.912 110 248.053 110C242.835 110 237.666 110.207 232.553 110.612M54.8138 293.659C58.6133 217.802 106.094 153.454 172.613 125.26M54.8138 293.659L483.816 203.964M150.629 270.702L172.613 125.26M194.576 185.104C212.989 164.232 226.299 138.751 232.553 110.612M159.438 215.322C133.242 232.204 102.048 242 68.5668 242C-24.2098 242 -99.4201 166.784 -99.4201 74C-99.4201 -18.7838 -24.2098 -94 68.5668 -94C161.343 -94 236.554 -18.7838 236.554 74C236.554 85.2979 235.439 96.3354 233.312 107.008M232.553 110.612C232.819 109.415 233.072 108.214 233.312 107.008M246.124 111.967C239.926 129.492 236.554 148.352 236.554 168C236.554 260.784 311.764 336 404.541 336C497.317 336 572.528 260.784 572.528 168C572.528 148.359 569.158 129.506 562.964 111.987M246.124 111.967C269.195 46.7335 331.41 0 404.541 0C477.678 0 539.899 46.7429 562.964 111.987M246.124 111.967L483.816 203.964M644.744 289.873C615.114 306.511 580.93 316 544.53 316C431.32 316 339.546 224.218 339.546 111C339.546 -2.21838 431.32 -94 544.53 -94C657.739 -94 749.514 -2.21838 749.514 111C749.514 111.034 749.514 111.068 749.514 111.102M676.374 267.976C687.977 290.804 694.518 316.638 694.518 344C694.518 436.784 619.308 512 526.531 512C433.755 512 358.544 436.784 358.544 344C358.544 251.216 433.755 176 526.531 176C544.651 176 562.101 178.869 578.451 184.178M676.374 267.976C656.316 228.513 621.129 198.034 578.451 184.178M676.374 267.976C721.069 230.391 749.483 174.065 749.514 111.102M677.778 163.41C677.607 166.085 677.519 168.782 677.519 171.5C677.519 240.259 733.256 296 802.01 296C870.764 296 926.5 240.259 926.5 171.5C926.5 102.741 870.764 47 802.01 47C735.973 47 681.946 98.4213 677.778 163.41ZM771.512 100.816C799.738 83.1391 818.508 51.7618 818.508 16C818.508 -39.2285 773.74 -84 718.516 -84C663.292 -84 618.524 -39.2285 618.524 16C618.524 71.2285 663.292 116 718.516 116C729.336 116 739.755 114.281 749.514 111.102M556.47 108.226C537.521 137.729 526.531 172.831 526.531 210.5C526.531 315.158 611.367 400 716.016 400C820.666 400 905.502 315.158 905.502 210.5C905.502 105.842 820.666 21 716.016 21C649.033 21 590.167 55.7596 556.47 108.226Z" stroke="#999997" stroke-width="2"/>
</svg>
